Coordinates
version=1
nRows=43
nColumns=12
inDegrees=yes

Units are S.I. units (second, meters, Newtons, ...)
Angles are in degrees

endheader
time	SC_y	SC_z	SC_x	AC_y	AC_z	AC_x	GH_y	GH_z	GH_yy	EL_x	PS_y
       0.0              -50.76         0.5463          75.56          52.09         -11.69         -11.05         -148.8          87.75         -1.238          97.87          73.66
   0.01668              -50.76         0.5476          75.56           52.1         -11.69         -11.05         -148.8          87.75         -1.252          97.87          73.66
   0.03336              -50.76         0.5489          75.56           52.1         -11.69         -11.05         -148.8          87.75         -1.267          97.87          73.66
   0.05004              -50.76         0.5503          75.56           52.1         -11.69         -11.05         -148.7          87.75         -1.283          97.87          73.65
   0.06673              -50.75         0.5519          75.56           52.1         -11.69         -11.05         -148.7          87.75           -1.3          97.86          73.65
   0.08341              -50.75         0.5535          75.56           52.1         -11.69         -11.05         -148.7          87.74         -1.318          97.86          73.65
    0.1001              -50.75         0.5552          75.56           52.1         -11.69         -11.05         -148.6          87.74         -1.338          97.86          73.65
    0.1168              -50.75          0.557          75.56          52.11          -11.7         -11.05         -148.6          87.74         -1.359          97.86          73.65
    0.1335              -50.75          0.559          75.56          52.11          -11.7         -11.05         -148.5          87.73         -1.381          97.86          73.64
    0.1501              -50.75         0.5611          75.56          52.11          -11.7         -11.05         -148.5          87.73         -1.405          97.86          73.64
    0.1668              -50.74         0.5634          75.56          52.11          -11.7         -11.05         -148.4          87.73          -1.43          97.86          73.64
    0.1835              -50.74         0.5659          75.56          52.12          -11.7         -11.05         -148.4          87.72         -1.458          97.86          73.64
    0.2002              -50.74         0.5685          75.56          52.12          -11.7         -11.05         -148.3          87.72         -1.488          97.86          73.64
    0.2169              -50.74         0.5714          75.57          52.12          -11.7         -11.05         -148.3          87.72          -1.52          97.85          73.63
    0.2335              -50.73         0.5744          75.57          52.13          -11.7         -11.05         -148.2          87.71         -1.555          97.85          73.63
    0.2502              -50.73         0.5778          75.57          52.13          -11.7         -11.05         -148.1          87.71         -1.592          97.85          73.63
    0.2669              -50.73         0.5814          75.57          52.13          -11.7         -11.05         -148.0           87.7         -1.633          97.85          73.62
    0.2836              -50.72         0.5854          75.57          52.14          -11.7         -11.05         -148.0          87.69         -1.678          97.85          73.62
    0.3003              -50.72         0.5897          75.57          52.14         -11.71         -11.04         -147.9          87.69         -1.727          97.85          73.61
    0.3169              -50.71         0.5945          75.57          52.15         -11.71         -11.04         -147.8          87.68          -1.78          97.84          73.61
    0.3336              -50.71         0.5997          75.58          52.15         -11.71         -11.04         -147.6          87.67         -1.839          97.84           73.6
    0.3503               -50.7         0.6054          75.58          52.16         -11.71         -11.04         -147.5          87.66         -1.903          97.84           73.6
     0.367              -50.69         0.6117          75.58          52.17         -11.71         -11.04         -147.4          87.65         -1.975          97.83          73.59
    0.3837              -50.69         0.6187          75.58          52.17         -11.72         -11.04         -147.2          87.64         -2.054          97.83          73.58
    0.4004              -50.68         0.6265          75.58          52.18         -11.72         -11.04         -147.1          87.63         -2.141          97.83          73.57
     0.417              -50.67         0.6352          75.59          52.19         -11.72         -11.04         -146.9          87.62         -2.239          97.82          73.57
    0.4337              -50.66         0.6449          75.59           52.2         -11.72         -11.04         -146.6           87.6         -2.349          97.82          73.55
    0.4504              -50.65         0.6559           75.6          52.22         -11.73         -11.04         -146.4          87.58         -2.472          97.81          73.54
    0.4671              -50.64         0.6683           75.6          52.23         -11.73         -11.04         -146.1          87.56         -2.612          97.81          73.53
    0.4838              -50.62         0.6823           75.6          52.24         -11.74         -11.03         -145.8          87.54          -2.77           97.8          73.52
    0.5004              -50.61         0.6984          75.61          52.26         -11.74         -11.03         -145.5          87.52         -2.951          97.79           73.5
    0.5171              -50.59         0.7168          75.62          52.28         -11.75         -11.03         -145.1          87.49         -3.158          97.78          73.48
    0.5338              -50.57          0.738          75.62          52.31         -11.75         -11.03         -144.6          87.46         -3.398          97.77          73.46
    0.5505              -50.54         0.7627          75.63          52.33         -11.76         -11.03         -144.1          87.42         -3.676          97.76          73.43
    0.5672              -50.52         0.7916          75.64          52.37         -11.77         -11.02         -143.4          87.37         -4.002          97.74           73.4
    0.5839              -50.48         0.8257          75.65           52.4         -11.78         -11.02         -142.7          87.32         -4.386          97.73          73.37
    0.6005              -50.44         0.8662          75.67          52.45          -11.8         -11.02         -141.8          87.26         -4.842          97.71          73.32
    0.6172              -50.39         0.9147          75.68           52.5         -11.81         -11.01         -140.7          87.18         -5.388          97.68          73.27
    0.6339              -50.33         0.9734           75.7          52.57         -11.83          -11.0         -139.4          87.09          -6.05          97.65          73.21
    0.6506              -50.26          1.045          75.73          52.65         -11.85          -11.0         -137.9          86.98         -6.858          97.62          73.14
    0.6673              -50.17          1.134          75.76          52.74         -11.88         -10.99         -135.9          86.84         -7.855          97.57          73.04
    0.6839              -50.06          1.244           75.8          52.87         -11.92         -10.98         -133.5          86.67         -9.099          97.52          72.93
    0.7006              -49.92          1.383          75.85          53.02         -11.96         -10.96         -130.4          86.45         -10.67          97.45          72.78
